# xmcd
#
# Track frame offsets:
#  150
#  10990
#  24871
#  37222
#  47823
#  58444
#  72437
#  89137
#  96147
#  107416
#  120068
#  131277
#  149419
#  160277
#
# Disc length: 2262 seconds
#
# Revision: 0
# Processed by: cddbd v1.5.2PL0 Copyright (c) Steve Scherf et al.
# Submitted via: AltoMP3_Maker 3.0
#
DISCID=c008d40e
DTITLE=Hot Club of Cowtown - Western Clambake
DYEAR=1900
DGENRE=
TTITLE0=Draggin' the Bow
TTITLE1=Silver Dew on the Bluegrass
TTITLE2=Chinatown
TTITLE3=Milkcow Blues
TTITLE4=Party for the Old Folks
TTITLE5=Maiden's Prayer
TTITLE6=Exactly Like You
TTITLE7=Devil's Dream
TTITLE8=Oklahoma Hills
TTITLE9=Dinah
TTITLE10=Old Fashioned Love
TTITLE11=After You've Gone
TTITLE12=Avalon
TTITLE13=I Laugh When I Think How I Cried over You
EXTD=
EXTT0=
EXTT1=
EXTT2=
EXTT3=
EXTT4=
EXTT5=
EXTT6=
EXTT7=
EXTT8=
EXTT9=
EXTT10=
EXTT11=
EXTT12=
EXTT13=
PLAYORDER=
